<svg fill="none" height="78" viewBox="0 0 297 78" width="297" xmlns="http://www.w3.org/2000/svg" xmlns:xlink="http://www.w3.org/1999/xlink"><linearGradient id="a"><stop offset="0" stop-color="#008fd8"/><stop offset="1" stop-color="#1d4288"/></linearGradient><linearGradient id="b" gradientUnits="userSpaceOnUse" x1="60.0283" x2="18.4716" xlink:href="#a" y1="71.1696" y2="71.4606"/><linearGradient id="c" gradientUnits="userSpaceOnUse" x1="76.9547" x2="47.4653" xlink:href="#a" y1="41.2154" y2="77.7345"/><linearGradient id="d" gradientUnits="userSpaceOnUse" x1="72.7218" x2="63.1743" y1="52.7976" y2="15.0467"><stop offset="0" stop-color="#1d4288"/><stop offset="1" stop-color="#008fd8"/></linearGradient><linearGradient id="e" gradientUnits="userSpaceOnUse" x1="30.7551" x2="1.92637" xlink:href="#a" y1="77.3546" y2="44.9192"/><linearGradient id="f" gradientUnits="userSpaceOnUse" x1="5.22342" x2="15.6996" xlink:href="#a" y1="57.6034" y2="11.073"/><linearGradient id="g" gradientUnits="userSpaceOnUse" x1="5.16935" x2="47.5021" xlink:href="#a" y1="24.6083" y2="3.63253"/><linearGradient id="h" gradientUnits="userSpaceOnUse" x1="33.8535" x2="71.245" xlink:href="#a" y1="4.68819" y2="23.0212"/><clipPath id="i"><path d="m0 0h297v78h-297z"/></clipPath><g clip-path="url(#i)"><g fill="#71717a"><path d="m99.3496 24.0869h-6.5964v-2.155h15.4118v2.155h-6.597v17.8517h-2.225v-17.8517z"/><path d="m118.233 28.2406c1.019 1.1353 1.526 2.6444 1.526 4.5275v9.1706h-2.139v-2.3589c-.513.8565-1.253 1.5227-2.212 1.9918-.96.4759-1.952.7138-2.985.7138-1.579 0-2.872-.4351-3.885-1.312-1.013-.877-1.512-2.0394-1.512-3.4942 0-.9722.259-1.8423.786-2.6037.526-.7682 1.226-1.3596 2.112-1.7743s1.852-.6254 2.899-.6254c1.485 0 3.085.2787 4.797.8429v-.5506c0-1.2237-.307-2.257-.913-3.0999-.606-.843-1.639-1.2645-3.085-1.2645-.666 0-1.346.1224-2.039.3671-.693.2448-1.452.5779-2.272 1.0061l-.859-1.7743c1.905-.9721 3.671-1.4547 5.31-1.4547 1.959 0 3.452.571 4.464 1.7063zm-2.425 11.2984c.939-.5507 1.545-1.3256 1.812-2.3182v-2.2977c-1.446-.4079-2.932-.6118-4.451-.6118-1.126 0-2.079.2923-2.872.8769s-1.186 1.3188-1.186 2.2162c0 .8973.347 1.6383 1.04 2.1686.693.537 1.572.8021 2.638.8021s2.072-.2787 3.012-.8293z"/><path d="m132.598 27.2616c.839.4826 1.485 1.1692 1.952 2.053.466.8837.7 1.8967.7 3.0455v9.5785h-2.139v-9.2929c0-1.2441-.34-2.2502-1.026-3.0116-.687-.7682-1.573-1.1489-2.652-1.1489-.82 0-1.58.1768-2.286.5235s-1.259.8225-1.672 1.414c-.407.5914-.613 1.2372-.613 1.9374v9.5785h-2.139v-15.0577h2.139v2.3861c.44-.8158 1.093-1.4752 1.972-1.9782.873-.5031 1.839-.7546 2.885-.7546s2.046.2447 2.885.7274z"/><path d="m137.628 40.2255 8.709-11.2712h-8.535v-2.0666h11.42v1.7199l-8.735 11.2712h8.795v2.0666h-11.647v-1.7199z"/><path d="m164.161 26.8877v15.0577h-2.139v-2.3861c-.44.8158-1.093 1.4752-1.972 1.9783-.873.503-1.839.7545-2.886.7545-1.046 0-2.045-.2447-2.885-.7274-.839-.4826-1.492-1.1692-1.952-2.053-.466-.8837-.7-1.8966-.7-3.0455v-9.5785h2.139v9.293c0 1.244.34 2.2501 1.026 3.0115.687.7682 1.573 1.1489 2.652 1.1489.82 0 1.579-.1768 2.286-.5235.706-.3467 1.259-.8225 1.672-1.414.407-.5914.613-1.2372.613-1.9374v-9.5785h2.139z"/><path d="m171.683 22.6866c.44.2583.787.6118 1.046 1.0605.26.4486.387.9313.387 1.448 0 .5166-.127 1.0061-.387 1.4479-.259.4487-.606.8022-1.046 1.0673-.439.2652-.913.3943-1.419.3943s-.993-.1291-1.433-.3943c-.439-.2651-.786-.6186-1.046-1.0673-.259-.4418-.386-.9313-.386-1.4479 0-.5167.127-1.0062.386-1.448.26-.4487.607-.7954 1.046-1.0605.434-.2584.913-.3875 1.433-.3875s.986.1291 1.419.3875zm-.2 4.6566c.374-.2175.673-.5234.887-.9041.213-.3807.326-.7954.326-1.2508 0-.4555-.113-.8634-.333-1.2441s-.513-.6798-.886-.8973c-.373-.2176-.78-.3331-1.22-.3331-.439 0-.846.1087-1.226.3331-.373.2175-.673.5234-.892.8973-.22.3807-.334.7954-.334 1.2441 0 .4486.114.8633.334 1.244.219.3807.519.6798.892.9041.374.2244.78.34 1.226.34.447 0 .847-.1088 1.226-.3332zm.114-1.9782c-.134.2039-.32.3467-.553.4351l.813 1.1828h-.867l-.739-1.074h-.533v1.074h-.867v-3.5485h1.633c.393 0 .713.1155.959.3399.247.2243.367.5234.367.8905 0 .2651-.067.5031-.2.7002zm-1.886-.3399h.673c.147 0 .267-.034.36-.102s.14-.1563.14-.2651c0-.102-.047-.1903-.14-.2515-.093-.068-.213-.102-.36-.102h-.673z"/><path d="m192.127 37.4363h-10.934l-1.972 4.5411h-2.426l8.649-20.0067h2.425l8.649 20.0067h-2.425l-1.973-4.5411zm-.913-2.155-4.537-10.5166-4.565 10.5166h9.109z"/><path d="m201.355 41.2501c-1.179-.7206-2.118-1.6859-2.811-2.896s-1.04-2.5221-1.04-3.9157.347-2.6988 1.04-3.9021c.693-1.2032 1.632-2.1618 2.811-2.8824 1.18-.7206 2.446-1.0741 3.798-1.0741.987 0 1.939.1972 2.839.5847.906.3875 1.706.9313 2.412 1.6315l-1.486 1.482c-.493-.5439-1.066-.9721-1.712-1.2781-.647-.3127-1.333-.469-2.053-.469-.972 0-1.872.2651-2.698.8022-.826.537-1.486 1.2576-1.972 2.1685-.487.911-.727 1.8899-.727 2.9436s.24 2.053.727 2.9572c.486.9041 1.139 1.6247 1.972 2.1686.826.5438 1.726.8157 2.698.8157.72 0 1.42-.1631 2.086-.4826s1.253-.775 1.772-1.3528l1.486 1.4887c-.706.7206-1.519 1.2781-2.438 1.686-.927.4078-1.886.6118-2.899.6118-1.353 0-2.619-.3603-3.798-1.0741z"/><path d="m223.197 28.2794c1.02 1.1353 1.526 2.6444 1.526 4.5275v9.1706h-2.139v-2.3589c-.513.8565-1.253 1.5228-2.212 1.9918-.96.4759-1.952.7138-2.985.7138-1.579 0-2.872-.4351-3.885-1.312-1.013-.877-1.512-2.0394-1.512-3.4942 0-.9721.26-1.8423.786-2.6037.526-.7682 1.226-1.3596 2.112-1.7743s1.853-.6254 2.899-.6254c1.486 0 3.085.2787 4.797.843v-.5507c0-1.2236-.306-2.2569-.913-3.0999-.606-.843-1.639-1.2645-3.085-1.2645-.666 0-1.346.1224-2.039.3671-.693.2448-1.452.5779-2.272 1.0062l-.859-1.7743c1.905-.9722 3.671-1.4548 5.31-1.4548 1.959 0 3.452.571 4.464 1.7063zm-2.425 11.2984c.939-.5506 1.546-1.3256 1.812-2.3181v-2.2978c-1.446-.4079-2.932-.6118-4.451-.6118-1.126 0-2.079.2923-2.872.8769-.793.5847-1.186 1.3189-1.186 2.2162s.347 1.6383 1.04 2.1686c.693.537 1.572.8022 2.638.8022s2.073-.2788 3.012-.8294z"/><path d="m241.323 21.624v20.3534h-2.139v-2.828c-.573 1.013-1.319 1.7879-2.238 2.3454-.927.5506-1.966.8293-3.125.8293-1.273 0-2.433-.3331-3.472-1.0061s-1.852-1.6043-2.439-2.8076c-.593-1.2032-.886-2.5629-.886-4.0788 0-1.516.293-2.8688.886-4.0653.587-1.1964 1.406-2.1278 2.439-2.794s2.192-1.0061 3.472-1.0061c1.159 0 2.205.2787 3.125.8294.919.5506 1.672 1.3324 2.238 2.3453v-8.1237h2.139zm-4.537 17.9945c.759-.5031 1.352-1.2101 1.772-2.1142s.626-1.9239.626-3.0727c0-1.1489-.213-2.1618-.626-3.0592-.42-.8905-1.006-1.5907-1.772-2.0938-.76-.503-1.62-.7546-2.572-.7546-.953 0-1.806.2516-2.552.7546-.753.5031-1.34 1.2033-1.753 2.0938-.419.8906-.626 1.9103-.626 3.0592 0 1.1488.207 2.1686.626 3.0727.42.9041 1.006 1.6043 1.753 2.1142.753.5031 1.605.7546 2.552.7546.946 0 1.805-.2515 2.572-.7546z"/><path d="m253.678 39.8564c.886-.3467 1.553-.775 2.013-1.278l1.312 1.4276c-.626.7002-1.506 1.2644-2.638 1.6859-1.133.4215-2.233.639-3.299.639-1.312 0-2.538-.3399-3.684-1.0197-1.14-.6798-2.059-1.6247-2.752-2.8416-.693-1.2101-1.04-2.5697-1.04-4.0653 0-1.4955.327-2.7872.986-3.9904.66-1.2033 1.54-2.1482 2.652-2.828 1.113-.6798 2.326-1.0197 3.638-1.0197 2.206 0 3.925.7885 5.151 2.3589s1.839 3.6914 1.839 6.3494h-12.074c.154 1.4956.707 2.7192 1.673 3.671.959.9517 2.152 1.4276 3.585 1.4276.873 0 1.752-.1768 2.638-.5235zm-6.15-10.0068c-.953.8838-1.526 2.0463-1.712 3.4807h9.934c-.153-1.4344-.639-2.5969-1.452-3.4807-.82-.8837-1.932-1.3256-3.338-1.3256-1.333 0-2.472.4419-3.425 1.3256z"/><path d="m278.807 27.314c.799.4962 1.419 1.1828 1.872 2.0666.447.8837.673 1.8898.673 3.0115v9.5785h-2.139v-9.293c0-1.2236-.32-2.2229-.953-2.9979-.639-.775-1.452-1.1625-2.438-1.1625-1.18 0-2.139.3671-2.885 1.0945-.74.7274-1.113 1.6587-1.113 2.7804v9.5785h-2.139v-9.293c0-1.2236-.32-2.2229-.953-2.9979-.64-.775-1.452-1.1625-2.439-1.1625-1.179 0-2.138.3671-2.885 1.0945-.739.7274-1.112 1.6587-1.112 2.7804v9.5785h-2.139v-15.0577h2.139v2.2161c.379-.7953.946-1.4208 1.699-1.8762.753-.4555 1.612-.6866 2.585-.6866 1.159 0 2.172.3195 3.038.9585.867.639 1.486 1.516 1.873 2.6241.226-1.0673.766-1.9307 1.612-2.5901s1.852-.9925 3.012-.9925c1.006 0 1.912.2447 2.712.741z"/><path d="m283.462 46.7294.513-1.8627c.493.2515 1.073.3807 1.739.3807.493 0 .906-.0952 1.226-.2923.327-.1972.626-.5439.913-1.0469l.86-1.8627-6.424-15.1122h2.372l5.164 12.5221 4.884-12.5221h2.312l-6.736 16.7437c-.493 1.2441-1.106 2.1414-1.826 2.6921-.719.5506-1.605.8429-2.652.8565-.859 0-1.639-.1631-2.338-.4962z"/><path d="m106.944 54.4429c.713.4659 1.276 1.1157 1.684 1.9494.408.8338.61 1.7778.61 2.8323 0 1.0544-.202 2.0026-.61 2.8445-.408.8378-.967 1.4917-1.684 1.9617-.717.4659-1.513.6989-2.393.6989-.8 0-1.517-.1921-2.155-.5804-.638-.3841-1.153-.9318-1.545-1.6347v1.9699h-1.4775v-14.194h1.4775v5.6645c.392-.7029.907-1.2506 1.545-1.6348.638-.3841 1.355-.5762 2.155-.5762.884-.0041 1.68.2289 2.393.6989zm-.903 8.3945c.519-.3514.923-.8419 1.212-1.4713s.432-1.3446.432-2.1415c0-.797-.143-1.5081-.432-2.1334-.289-.6212-.693-1.1117-1.212-1.4631-.519-.3515-1.105-.5272-1.763-.5272s-1.248.1757-1.771.5272c-.523.3514-.931.8378-1.22 1.4631s-.432 1.3323-.432 2.1334c0 .801.143 1.5121.432 2.1415s.697 1.1199 1.22 1.4713c.523.3515 1.117.5272 1.771.5272.658 0 1.244-.1757 1.763-.5272z"/><path d="m110.494 67.791.356-1.2996c.341.1757.741.2656 1.201.2656.341 0 .622-.0694.848-.2043.221-.1349.431-.3801.63-.7316l.59-1.2996-4.429-10.5361h1.632l3.561 8.7297 3.364-8.7297h1.592l-4.643 11.6763c-.34.8665-.76 1.4918-1.259 1.88-.5.3842-1.11.5845-1.831.5967-.59 0-1.125-.1185-1.612-.3474z"/><path d="m139.366 50.5317-5.962 13.9488h-1.672l-5.962-13.9488h1.671l5.139 11.9993 5.118-11.9993z"/><path d="m141.568 50.5317h1.537l5.02 9.727 5.019-9.727h1.537v13.9488h-1.537v-10.5362l-5.019 9.727-5.02-9.727v10.5362h-1.537z"/><path d="m156.695 53.9851h1.572l2.54 8.4681 2.777-8.4681h1.28l2.777 8.4681 2.539-8.4681h1.573l-3.423 10.4994h-1.399l-2.693-8.3864-2.738 8.3864h-1.398z"/><path d="m180.052 54.9294c.701.7929 1.054 1.8432 1.054 3.1592v6.3961h-1.474v-1.643c-.356.5967-.864 1.0585-1.525 1.3896-.662.331-1.347.4986-2.056.4986-1.09 0-1.981-.3066-2.678-.9155-.698-.609-1.042-1.4223-1.042-2.4358 0-.6785.178-1.2833.543-1.8187.36-.5354.847-.9482 1.457-1.2384.611-.2901 1.276-.4373 1.997-.4373 1.022 0 2.128.1962 3.308.5886v-.3842c0-.8542-.21-1.5735-.63-2.162s-1.129-.8828-2.123-.8828c-.46 0-.927.0858-1.407.2534-.479.1717-.998.4046-1.564.6989l-.591-1.2384c1.312-.6743 2.532-1.0135 3.661-1.0135 1.339-.0041 2.365.3923 3.07 1.1852zm-1.676 7.8755c.65-.3842 1.066-.9236 1.252-1.6143v-1.6062c-.998-.2861-2.02-.425-3.07-.425-.773 0-1.434.2043-1.977.6089s-.816.9196-.816 1.5449c0 .6376.242 1.1402.717 1.5122.479.3719 1.085.5599 1.818.5599.737 0 1.427-.1921 2.076-.5804z"/><path d="m186.882 54.361c.698-.4128 1.51-.6171 2.441-.6171v1.3609c-.761 0-1.442.1472-2.036.4455-.599.2984-1.062.7152-1.399 1.2506s-.503 1.1403-.503 1.8187v5.8689h-1.478v-10.4994h1.478v2.0517c.305-.7112.804-1.267 1.497-1.6798z"/><path d="m196.952 63.0009c.611-.2452 1.074-.5394 1.387-.895l.903.9931c-.431.4864-1.042.8787-1.818 1.1771-.781.2983-1.537.4454-2.274.4454-.907 0-1.751-.237-2.539-.7111-.789-.4741-1.419-1.1321-1.898-1.9781s-.717-1.7901-.717-2.8322c0-1.0177.226-1.9413.677-2.7832.452-.8379 1.062-1.4959 1.831-1.9699.768-.4741 1.604-.7112 2.507-.7112 1.522 0 2.706.5477 3.554 1.643s1.268 2.5707 1.268 4.4261h-8.324c.103 1.0422.487 1.8964 1.153 2.5585.662.662 1.486.9931 2.468.9931.602.0082 1.212-.1144 1.822-.3556zm-4.242-6.9764c-.658.6172-1.05 1.4264-1.181 2.4277h6.85c-.103-1.0013-.44-1.8105-1.003-2.4277-.562-.6171-1.331-.9236-2.301-.9236-.923 0-1.708.3065-2.365.9236z"/></g><path d="m50.3548 64.5957h-22.2567l10.4818 13.4044h1.2931 16.8129l10.4818-13.4044z" fill="url(#b)"/><path d="m74.7115 33.4487-10.4818 13.4045-13.875 17.7425h16.813l.8033-1.0299 10.4818-13.4045z" fill="url(#c)"/><path d="m74.3061 31.6228-3.6227-16.1742-15.1451-7.43957 3.6189 16.17427.1225.5422 4.9501 22.1275 10.4818-13.4044z" fill="url(#d)"/><path d="m28.098 64.5956-13.875-17.7426-3.7413 16.7126.8033 1.03 10.4857 13.4044h16.8091z" fill="url(#e)"/><path d="m4.02822 32.1651-.28691 1.2835-3.74131 16.7126 10.4818 13.4044 3.7413-16.7126 4.954-22.1274z" fill="url(#f)"/><path d="m24.0776 7.43945-1.1591.56957-15.14887 7.43958-3.74131 16.7165 15.14888-7.4396 20.0493-9.8465z" fill="url(#g)"/><path d="m55.5383 8.0091-1.1629-.56957-15.1489-7.43953-15.1489 7.43953 15.1489 7.43957 20.0532 9.8465z" fill="url(#h)"/></g></svg>